# 3ds Max Wavefront OBJ Exporter v0.97b - (c)2007 guruware
# File Created: 09.10.2015 17:57:16

#
# object RockA002_01
#

v  -3.0644 11.4540 7.2866
v  -2.4410 19.4426 0.0823
v  -10.1982 11.8430 -3.7950
v  -3.1241 -15.1124 -11.5152
v  -10.9495 4.2963 -8.6049
v  -9.4753 10.4641 -8.1611
v  0.9255 11.0784 -14.8812
v  -2.2639 14.2180 -12.0563
v  15.3317 -11.7143 6.0209
v  12.3137 -13.2638 -4.1197
v  12.0598 0.4940 -11.5579
v  15.3505 1.1454 -0.1064
v  12.3470 1.5470 -11.0385
v  7.5729 -15.9087 -4.7263
v  6.7861 -17.7939 4.3930
v  1.1921 -18.6301 7.0417
v  -2.9577 -17.8187 0.4438
v  -1.1524 -17.6626 5.4918
v  6.8343 15.2062 -11.4026
v  10.7391 -3.6683 13.7010
v  13.0740 4.5509 3.9760
v  3.9842 16.9822 -1.9590
v  3.3836 -14.6436 10.4817
v  -0.8088 -7.0627 13.6338
v  -4.9547 -6.5779 12.0681
v  -7.0809 -11.9395 7.8989
v  -18.0719 4.9368 -1.8646
v  -17.0484 -5.4341 2.4576
v  -13.6040 -6.5645 7.7401
v  -12.1813 -2.6125 11.1803
v  -16.9712 6.0761 -5.3376
v  -10.7229 -9.3527 -7.6470
v  -13.0121 -10.1180 -1.5786
v  0.5618 17.6253 -9.1966
v  5.1206 -14.8939 -10.4014
v  -6.0514 -16.7013 -3.9901
v  2.2175 -2.8973 14.8321
v  7.0140 -14.2692 10.2531
v  9.2836 -15.9059 7.7796
v  -15.7933 11.0042 -4.9830
v  -16.3709 12.1060 -1.4944
v  -10.6709 11.7952 7.3599
v  -11.3917 -10.5246 1.2876
# 43 vertices

vn -0.7239 0.4923 0.4833
vn -0.4738 -0.0318 -0.8801
vn -0.3342 0.0568 -0.9408
vn -0.4493 0.0918 -0.8886
vn -0.5441 0.0494 -0.8376
vn -0.5408 0.1883 -0.8198
vn 0.9556 -0.1270 -0.2660
vn 0.9559 -0.1258 -0.2653
vn 0.9552 -0.1280 -0.2667
vn 0.9550 -0.1287 -0.2671
vn 0.0582 -0.9775 -0.2026
vn 0.0527 -0.9788 -0.1978
vn -0.0488 -0.9933 -0.1049
vn 0.0240 -0.9797 -0.1993
vn -0.4835 -0.8524 0.1993
vn 0.6013 0.2222 -0.7675
vn 0.6015 0.2223 -0.7673
vn 0.5946 0.2194 -0.7735
vn 0.4437 0.6291 0.6382
vn -0.4389 -0.5173 0.7347
vn -0.3544 -0.5193 0.7776
vn -0.3421 -0.5155 0.7856
vn -0.2761 -0.5277 0.8033
vn -0.4427 -0.4813 0.7565
vn -0.6090 -0.2991 0.7346
vn 0.9145 0.1729 0.3657
vn -0.8701 0.0695 0.4879
vn -0.8122 0.1543 0.5626
vn -0.8903 0.0334 0.4542
vn -0.9155 -0.0201 0.4018
vn -0.8603 -0.3048 -0.4086
vn -0.8998 -0.2405 -0.3641
vn -0.8784 -0.2639 -0.3984
vn -0.8531 -0.3251 -0.4080
vn -0.8373 -0.4053 -0.3670
vn -0.5703 0.7514 -0.3317
vn 0.3356 0.9390 -0.0753
vn 0.2268 0.9084 -0.3512
vn 0.1332 0.8338 -0.5357
vn 0.0483 -0.9804 -0.1911
vn 0.0442 -0.9726 -0.2284
vn 0.3101 0.0304 -0.9502
vn 0.1418 -0.1460 -0.9791
vn 0.1362 -0.1470 -0.9797
vn 0.3539 0.5656 0.7449
vn 0.5431 0.5386 0.6442
vn 0.1946 0.5684 0.7994
vn 0.1586 0.5668 0.8084
vn 0.0938 -0.3376 0.9366
vn 0.5108 -0.4229 0.7485
vn 0.5831 -0.8118 -0.0292
vn 0.5755 -0.8172 0.0312
vn 0.5631 -0.8251 -0.0453
vn 0.5422 -0.8351 -0.0923
vn 0.4958 -0.8579 -0.1346
vn 0.6409 -0.4379 -0.6305
vn 0.8137 -0.3987 -0.4229
vn 0.6375 -0.4383 -0.6337
vn 0.3513 -0.4402 -0.8263
vn -0.0169 0.6551 -0.7553
vn -0.0161 0.6506 -0.7593
vn -0.0168 0.6547 -0.7557
vn -0.0175 0.6589 -0.7521
vn 0.2139 -0.0806 -0.9735
vn 0.4169 0.1575 -0.8952
vn -0.9443 0.2375 -0.2278
vn -0.9450 0.2417 -0.2202
vn -0.9446 0.2393 -0.2245
vn -0.9440 0.2359 -0.2308
vn -0.4333 0.1813 0.8829
vn -0.3544 -0.0115 0.9350
vn -0.4430 0.2084 0.8720
vn -0.4644 0.2722 0.8427
vn -0.8359 0.2016 0.5105
vn -0.8543 0.1775 0.4885
vn -0.8313 0.2074 0.5156
vn -0.8153 0.2268 0.5328
vn -0.6201 -0.7453 0.2448
vn 0.1900 -0.8093 0.5558
vn -0.0538 -0.8548 0.5162
vn 0.0665 -0.8562 0.5124
vn 0.2434 -0.7992 0.5495
vn 0.3836 -0.7151 0.5844
vn 0.0449 0.9990 0.0062
vn -0.0758 0.9472 -0.3117
vn -0.4561 0.0834 -0.8860
vn -0.4316 0.1670 -0.8865
vn -0.4933 -0.0690 -0.8671
vn -0.6902 -0.6183 -0.3760
vn -0.6995 -0.5939 -0.3975
vn -0.6854 -0.6298 -0.3655
vn -0.6716 -0.6600 -0.3366
vn -0.3990 -0.4907 0.7746
vn -0.4301 -0.4997 0.7519
vn 0.0207 0.2542 0.9669
vn 0.8762 0.4813 0.0236
vn 0.8137 0.5805 -0.0304
vn 0.8125 0.5676 -0.1326
vn 0.8539 0.5133 -0.0860
vn 0.9060 0.3711 0.2037
# 100 vertex normals

vt 0.8663 0.1129 0.0000
vt 0.8457 0.2258 0.0000
vt 0.7373 0.1682 0.0000
vt 0.4311 0.4496 0.0000
vt 0.5532 0.2609 0.0000
vt 0.6145 0.2336 0.0000
vt 0.6928 0.3394 0.0000
vt 0.6961 0.2838 0.0000
vt 0.5738 0.7187 0.0000
vt 0.5308 0.6131 0.0000
vt 0.6552 0.5030 0.0000
vt 0.6927 0.6244 0.0000
vt 0.6677 0.5062 0.0000
vt 0.4803 0.5896 0.0000
vt 0.4329 0.6769 0.0000
vt 0.3664 0.6798 0.0000
vt 0.3542 0.5973 0.0000
vt 0.3510 0.6535 0.0000
vt 0.7653 0.3784 0.0000
vt 0.6680 0.5015 0.0000
vt 0.7246 0.7826 0.0000
vt 0.7488 0.6469 0.0000
vt 0.9004 0.5580 0.0000
vt 0.9726 0.5831 0.0000
vt 0.1588 0.3530 0.0000
vt 0.1602 0.2548 0.0000
vt 0.2038 0.2370 0.0000
vt 0.2586 0.2891 0.0000
vt 0.2335 0.3768 0.0000
vt 0.2065 0.3904 0.0000
vt 0.6022 0.7447 0.0000
vt 0.6922 0.6226 0.0000
vt 0.4931 0.1690 0.0000
vt 0.3751 0.1906 0.0000
vt 0.3291 0.1406 0.0000
vt 0.3429 0.0848 0.0000
vt 0.3825 0.2155 0.0000
vt 0.5281 0.1897 0.0000
vt 0.4312 0.3400 0.0000
vt 0.3791 0.2940 0.0000
vt 0.7214 0.2917 0.0000
vt 0.6983 0.1986 0.0000
vt 0.7759 0.3051 0.0000
vt 0.9533 0.5227 0.0000
vt 0.8770 0.5275 0.0000
vt 0.8095 0.4449 0.0000
vt 0.8848 0.4423 0.0000
vt 0.4050 0.4773 0.0000
vt 0.4810 0.5229 0.0000
vt 0.3436 0.5397 0.0000
vt 0.4776 0.5249 0.0000
vt 0.9339 0.6907 0.0000
vt 0.8077 0.8209 0.0000
vt 0.0343 0.2790 0.0000
vt 0.1107 0.2279 0.0000
vt 0.1227 0.3676 0.0000
vt 0.1080 0.4044 0.0000
vt 0.0274 0.4069 0.0000
vt 0.5338 0.7276 0.0000
vt 0.4535 0.7212 0.0000
vt 0.5330 0.6138 0.0000
vt 0.7643 0.3795 0.0000
vt 0.6897 0.3383 0.0000
vt 0.5680 0.1530 0.0000
vt 0.5520 0.1170 0.0000
vt 0.1139 0.2236 0.0000
vt 0.1481 0.0453 0.0000
vt 0.4901 0.0235 0.0000
vt 0.3440 0.2904 0.0000
vt 0.3463 0.3939 0.0000
vt 0.2876 0.3953 0.0000
vt 0.1432 0.4373 0.0000
vt 0.1602 0.3576 0.0000
vt 0.1993 0.4032 0.0000
vt 0.8774 0.1769 0.0000
vt 0.7265 0.0988 0.0000
vt 0.8384 0.1058 0.0000
vt 0.6954 0.1231 0.0000
vt 0.5773 0.1680 0.0000
vt 0.4150 0.4483 0.0000
vt 0.3770 0.2153 0.0000
vt 0.3088 0.2141 0.0000
vt 0.2631 0.1712 0.0000
vt 0.3040 0.2121 0.0000
vt 0.2271 0.0274 0.0000
vt 0.2715 0.1806 0.0000
vt 0.8107 0.4464 0.0000
# 87 texture coords

g RockA002_01
s 1
f 1/1/1 2/2/1 3/3/1 
f 4/4/2 5/5/3 6/6/4 
f 7/7/5 4/4/2 6/6/4 
f 8/8/6 7/7/5 6/6/4 
f 9/9/7 10/10/8 11/11/9 
f 12/12/10 9/9/7 11/11/9 
f 13/13/10 12/12/10 11/11/9 
s 2
f 14/14/11 15/15/12 16/16/13 
f 17/17/14 14/14/11 16/16/13 
f 18/18/15 17/17/14 16/16/13 
f 19/19/16 19/19/17 13/20/18 
f 13/20/18 11/11/18 19/19/16 
f 20/21/19 21/22/19 22/23/19 
f 22/23/19 2/24/19 20/21/19 
s 1
f 23/25/20 24/26/21 25/27/22 
f 25/27/22 26/28/23 18/29/24 
f 23/25/20 25/27/22 18/29/24 
f 16/30/25 23/25/20 18/29/24 
s 4
f 9/31/26 12/32/26 21/22/26 
f 21/22/26 20/21/26 9/31/26 
s 2
f 27/33/27 28/34/28 29/35/29 
f 29/35/29 30/36/30 27/33/27 
s 4
f 28/37/31 27/33/32 31/38/33 
f 28/37/31 31/38/33 32/39/34 
f 33/40/35 28/37/31 32/39/34 
f 8/41/36 6/42/36 3/3/36 
f 8/41/36 3/3/36 2/2/36 
f 34/43/36 8/41/36 2/2/36 
s 8
f 2/44/37 22/45/37 19/46/38 
f 19/46/38 19/46/39 34/47/37 
f 2/44/37 19/46/38 34/47/37 
s 2
f 4/48/40 35/49/12 14/14/11 
f 36/50/41 4/48/40 14/14/11 
f 17/17/14 36/50/41 14/14/11 
s 4
f 7/7/42 35/51/43 4/4/44 
s 16
f 2/24/45 1/52/46 37/53/47 
f 37/53/47 20/21/48 2/24/45 
s 8
f 20/54/49 37/55/49 24/26/49 
f 24/26/49 23/25/49 38/56/49 
f 20/54/49 24/26/49 38/56/49 
s 32
f 20/54/50 38/56/50 39/57/50 
f 39/57/50 9/58/50 20/54/50 
s 8
f 9/59/51 39/60/52 15/15/53 
f 10/61/54 9/59/51 15/15/53 
f 14/14/55 10/61/54 15/15/53 
s 16
f 14/14/56 35/51/57 11/11/58 
f 11/11/58 10/10/59 14/14/56 
f 8/41/60 34/43/61 19/62/62 
f 19/62/62 7/63/63 8/41/60 
s 4
f 11/11/64 35/51/43 7/7/42 
f 7/7/42 19/62/65 11/11/64 
s 8
f 40/64/66 31/38/67 27/33/68 
f 27/33/68 41/65/69 40/64/66 
s 2
f 25/27/70 24/26/71 37/66/72 
f 37/66/72 1/67/73 25/27/70 
s 16
f 41/65/74 27/33/75 30/36/76 
f 30/36/76 42/68/77 41/65/74 
s 8
f 18/29/78 26/28/78 43/69/78 
f 18/29/78 43/69/78 36/70/78 
f 18/29/78 36/70/78 17/71/78 
s 4
f 15/72/79 39/57/80 38/56/81 
f 15/72/79 38/56/81 23/73/82 
f 15/72/79 23/73/82 16/74/83 
s 32
f 1/75/84 3/3/84 41/76/84 
f 41/76/84 42/77/84 1/75/84 
s 2
f 3/3/85 6/42/85 40/78/85 
f 40/78/85 41/76/85 3/3/85 
s 1
f 6/6/4 5/5/3 31/38/86 
f 31/38/86 40/79/87 6/6/4 
f 5/5/3 4/4/2 32/39/88 
f 32/39/88 31/38/86 5/5/3 
s 16
f 4/80/89 36/70/90 33/40/91 
f 33/40/91 32/39/92 4/80/89 
s 8
f 36/70/78 43/69/78 28/81/78 
f 28/81/78 33/40/78 36/70/78 
f 43/69/78 26/28/78 29/82/78 
f 29/82/78 28/81/78 43/69/78 
s 1
f 26/28/23 25/27/22 30/83/93 
f 30/83/93 29/84/94 26/28/23 
s 4
f 25/27/95 1/67/95 42/85/95 
f 42/85/95 30/86/95 25/27/95 
s 16
f 22/45/96 21/22/97 12/32/98 
f 22/45/96 12/32/98 13/13/99 
f 22/45/96 13/13/99 19/87/100 
# 0 polygons - 84 triangles

