# 3ds Max Wavefront OBJ Exporter v0.97b - (c)2007 guruware
# File Created: 12.10.2015 18:08:23

mtllib Rings.mtl

#
# object Cylinder004
#

v  119.231255 0.000000 -0.000004
v  112.040733 0.000000 -40.779495
v  91.336441 0.000000 -76.640381
v  59.615623 0.000000 -103.257309
v  20.704281 0.000000 -117.419876
v  -20.704304 0.000000 -117.419861
v  -59.615635 0.000000 -103.257294
v  -91.336441 0.000000 -76.640381
v  -112.040733 0.000000 -40.779503
v  -119.231255 0.000000 -0.000022
v  -112.040733 0.000000 40.779465
v  -91.336464 0.000000 76.640350
v  -59.615662 0.000000 103.257263
v  -20.704340 0.000000 117.419846
v  20.704231 0.000000 117.419876
v  59.615566 0.000000 103.257324
v  91.336388 0.000000 76.640427
v  112.040703 0.000000 40.779568
v  95.385002 0.000000 -0.000004
v  89.632584 0.000000 -32.623596
v  73.069153 0.000000 -61.312305
v  47.692497 0.000000 -82.605850
v  16.563425 0.000000 -93.935898
v  -16.563444 0.000000 -93.935898
v  -47.692505 0.000000 -82.605835
v  -73.069153 0.000000 -61.312305
v  -89.632584 0.000000 -32.623604
v  -95.385002 0.000000 -0.000018
v  -89.632591 0.000000 32.623569
v  -73.069168 0.000000 61.312275
v  -47.692528 0.000000 82.605820
v  -16.563471 0.000000 93.935883
v  16.563385 0.000000 93.935898
v  47.692451 0.000000 82.605865
v  73.069107 0.000000 61.312340
v  89.632561 0.000000 32.623653
v  71.538757 0.000000 -0.000004
v  67.224442 0.000000 -24.467701
v  54.801868 0.000000 -45.984234
v  35.769375 0.000000 -61.954388
v  12.422569 0.000000 -70.451935
v  -12.422584 0.000000 -70.451920
v  -35.769382 0.000000 -61.954384
v  -54.801868 0.000000 -45.984234
v  -67.224442 0.000000 -24.467705
v  -71.538757 0.000000 -0.000015
v  -67.224449 0.000000 24.467678
v  -54.801880 0.000000 45.984207
v  -35.769402 0.000000 61.954365
v  -12.422605 0.000000 70.451920
v  12.422540 0.000000 70.451920
v  35.769341 0.000000 61.954399
v  54.801838 0.000000 45.984261
v  67.224426 0.000000 24.467739
v  47.692501 0.000000 -0.000004
v  44.816292 0.000000 -16.311800
v  36.534576 0.000000 -30.656155
v  23.846249 0.000000 -41.302925
v  8.281713 0.000000 -46.967949
v  -8.281722 0.000000 -46.967949
v  -23.846252 0.000000 -41.302921
v  -36.534576 0.000000 -30.656155
v  -44.816292 0.000000 -16.311804
v  -47.692501 0.000000 -0.000011
v  -44.816296 0.000000 16.311783
v  -36.534584 0.000000 30.656136
v  -23.846264 0.000000 41.302906
v  -8.281735 0.000000 46.967937
v  8.281693 0.000000 46.967945
v  23.846226 0.000000 41.302929
v  36.534554 0.000000 30.656168
v  44.816280 0.000000 16.311825
# 72 vertices

vn 0.000000 1.000000 -0.000000
# 1 vertex normals

vt 0.905778 0.500000 0.500000
vt 0.881307 0.640925 0.500000
vt 0.805045 0.612740 0.500000
vt 0.824623 0.500000 0.500000
vt 0.810844 0.764853 0.500000
vt 0.748675 0.711882 0.500000
vt 0.702889 0.856835 0.500000
vt 0.662311 0.785468 0.500000
vt 0.570463 0.905778 0.500000
vt 0.556370 0.824623 0.500000
vt 0.429537 0.905778 0.500000
vt 0.443630 0.824623 0.500000
vt 0.297111 0.856835 0.500000
vt 0.337689 0.785468 0.500000
vt 0.189156 0.764853 0.500000
vt 0.251325 0.711882 0.500000
vt 0.118693 0.640925 0.500000
vt 0.194955 0.612740 0.500000
vt 0.094222 0.500000 0.500000
vt 0.175377 0.500000 0.500000
vt 0.118693 0.359075 0.500000
vt 0.194954 0.387260 0.500000
vt 0.189156 0.235147 0.500000
vt 0.251325 0.288118 0.500000
vt 0.297111 0.143165 0.500000
vt 0.337689 0.214532 0.500000
vt 0.429537 0.094222 0.500000
vt 0.443630 0.175377 0.500000
vt 0.570462 0.094222 0.500000
vt 0.556370 0.175377 0.500000
vt 0.702889 0.143164 0.500000
vt 0.662311 0.214532 0.500000
vt 0.810844 0.235147 0.500000
vt 0.748675 0.288117 0.500000
vt 0.881307 0.359074 0.500000
vt 0.805045 0.387259 0.500000
vt 0.728784 0.584555 0.500000
vt 0.743467 0.500000 0.500000
vt 0.686507 0.658912 0.500000
vt 0.621734 0.714101 0.500000
vt 0.542278 0.743467 0.500000
vt 0.457722 0.743467 0.500000
vt 0.378267 0.714101 0.500000
vt 0.313493 0.658912 0.500000
vt 0.271216 0.584555 0.500000
vt 0.256533 0.500000 0.500000
vt 0.271216 0.415445 0.500000
vt 0.313493 0.341088 0.500000
vt 0.378266 0.285899 0.500000
vt 0.457722 0.256533 0.500000
vt 0.542277 0.256533 0.500000
vt 0.621733 0.285899 0.500000
vt 0.686506 0.341088 0.500000
vt 0.728784 0.415445 0.500000
vt 0.652523 0.556370 0.500000
vt 0.662311 0.500000 0.500000
vt 0.624338 0.605941 0.500000
vt 0.581156 0.642734 0.500000
vt 0.528185 0.662311 0.500000
vt 0.471815 0.662311 0.500000
vt 0.418844 0.642734 0.500000
vt 0.375662 0.605941 0.500000
vt 0.347477 0.556370 0.500000
vt 0.337689 0.500000 0.500000
vt 0.347477 0.443630 0.500000
vt 0.375662 0.394059 0.500000
vt 0.418844 0.357266 0.500000
vt 0.471815 0.337689 0.500000
vt 0.528185 0.337689 0.500000
vt 0.581156 0.357266 0.500000
vt 0.624338 0.394059 0.500000
vt 0.652523 0.443630 0.500000
# 72 texture coords

g Cylinder004
usemtl Rings
s 1
f -72/-72/-1 -71/-71/-1 -53/-70/-1 -54/-69/-1 
f -71/-71/-1 -70/-68/-1 -52/-67/-1 -53/-70/-1 
f -70/-68/-1 -69/-66/-1 -51/-65/-1 -52/-67/-1 
f -69/-66/-1 -68/-64/-1 -50/-63/-1 -51/-65/-1 
f -68/-64/-1 -67/-62/-1 -49/-61/-1 -50/-63/-1 
f -67/-62/-1 -66/-60/-1 -48/-59/-1 -49/-61/-1 
f -66/-60/-1 -65/-58/-1 -47/-57/-1 -48/-59/-1 
f -65/-58/-1 -64/-56/-1 -46/-55/-1 -47/-57/-1 
f -64/-56/-1 -63/-54/-1 -45/-53/-1 -46/-55/-1 
f -63/-54/-1 -62/-52/-1 -44/-51/-1 -45/-53/-1 
f -62/-52/-1 -61/-50/-1 -43/-49/-1 -44/-51/-1 
f -61/-50/-1 -60/-48/-1 -42/-47/-1 -43/-49/-1 
f -60/-48/-1 -59/-46/-1 -41/-45/-1 -42/-47/-1 
f -59/-46/-1 -58/-44/-1 -40/-43/-1 -41/-45/-1 
f -58/-44/-1 -57/-42/-1 -39/-41/-1 -40/-43/-1 
f -57/-42/-1 -56/-40/-1 -38/-39/-1 -39/-41/-1 
f -56/-40/-1 -55/-38/-1 -37/-37/-1 -38/-39/-1 
f -55/-38/-1 -72/-72/-1 -54/-69/-1 -37/-37/-1 
f -54/-69/-1 -53/-70/-1 -35/-36/-1 -36/-35/-1 
f -53/-70/-1 -52/-67/-1 -34/-34/-1 -35/-36/-1 
f -52/-67/-1 -51/-65/-1 -33/-33/-1 -34/-34/-1 
f -51/-65/-1 -50/-63/-1 -32/-32/-1 -33/-33/-1 
f -50/-63/-1 -49/-61/-1 -31/-31/-1 -32/-32/-1 
f -49/-61/-1 -48/-59/-1 -30/-30/-1 -31/-31/-1 
f -48/-59/-1 -47/-57/-1 -29/-29/-1 -30/-30/-1 
f -47/-57/-1 -46/-55/-1 -28/-28/-1 -29/-29/-1 
f -46/-55/-1 -45/-53/-1 -27/-27/-1 -28/-28/-1 
f -45/-53/-1 -44/-51/-1 -26/-26/-1 -27/-27/-1 
f -44/-51/-1 -43/-49/-1 -25/-25/-1 -26/-26/-1 
f -43/-49/-1 -42/-47/-1 -24/-24/-1 -25/-25/-1 
f -42/-47/-1 -41/-45/-1 -23/-23/-1 -24/-24/-1 
f -41/-45/-1 -40/-43/-1 -22/-22/-1 -23/-23/-1 
f -40/-43/-1 -39/-41/-1 -21/-21/-1 -22/-22/-1 
f -39/-41/-1 -38/-39/-1 -20/-20/-1 -21/-21/-1 
f -38/-39/-1 -37/-37/-1 -19/-19/-1 -20/-20/-1 
f -37/-37/-1 -54/-69/-1 -36/-35/-1 -19/-19/-1 
f -36/-35/-1 -35/-36/-1 -17/-18/-1 -18/-17/-1 
f -35/-36/-1 -34/-34/-1 -16/-16/-1 -17/-18/-1 
f -34/-34/-1 -33/-33/-1 -15/-15/-1 -16/-16/-1 
f -33/-33/-1 -32/-32/-1 -14/-14/-1 -15/-15/-1 
f -32/-32/-1 -31/-31/-1 -13/-13/-1 -14/-14/-1 
f -31/-31/-1 -30/-30/-1 -12/-12/-1 -13/-13/-1 
f -30/-30/-1 -29/-29/-1 -11/-11/-1 -12/-12/-1 
f -29/-29/-1 -28/-28/-1 -10/-10/-1 -11/-11/-1 
f -28/-28/-1 -27/-27/-1 -9/-9/-1 -10/-10/-1 
f -27/-27/-1 -26/-26/-1 -8/-8/-1 -9/-9/-1 
f -26/-26/-1 -25/-25/-1 -7/-7/-1 -8/-8/-1 
f -25/-25/-1 -24/-24/-1 -6/-6/-1 -7/-7/-1 
f -24/-24/-1 -23/-23/-1 -5/-5/-1 -6/-6/-1 
f -23/-23/-1 -22/-22/-1 -4/-4/-1 -5/-5/-1 
f -22/-22/-1 -21/-21/-1 -3/-3/-1 -4/-4/-1 
f -21/-21/-1 -20/-20/-1 -2/-2/-1 -3/-3/-1 
f -20/-20/-1 -19/-19/-1 -1/-1/-1 -2/-2/-1 
f -19/-19/-1 -36/-35/-1 -18/-17/-1 -1/-1/-1 
# 54 polygons

