<?xml version="1.0" encoding="utf-8"?>
<!-- Generator: Adobe Illustrator 18.0.0, SVG Export Plug-In . SVG Version: 6.00 Build 0)  -->
<!DOCTYPE svg PUBLIC "-//W3C//DTD SVG 1.1//EN" "http://www.w3.org/Graphics/SVG/1.1/DTD/svg11.dtd">
<svg version="1.1" id="Layer_1" xmlns="http://www.w3.org/2000/svg" xmlns:xlink="http://www.w3.org/1999/xlink" x="0px" y="0px"
	 viewBox="0 0 200 200" enable-background="new 0 0 200 200" xml:space="preserve">
<g>
	<path fill="#FFFFFF" d="M95.2,71.3c2.1,3.1,3.3,6.6,3.3,10.8c0,4.4-1.1,7.8-3.3,10.5c-1.2,1.5-3.1,2.8-5.4,4
		c3.6,1.3,6.3,3.4,8.1,6.2c1.9,2.8,2.7,6.3,2.7,10.3c0,4.2-1.1,8-3.2,11.3c-1.3,2.2-3.1,4.1-5.1,5.5c-2.2,1.8-4.9,2.9-8,3.5
		s-6.3,0.9-10,0.9H42.8V63.7H77C85.6,63.8,91.7,66.4,95.2,71.3z M56.9,76.1v15.6h17.2c3.1,0,5.5-0.6,7.5-1.8
		c1.9-1.2,2.8-3.3,2.8-6.2c0-3.3-1.3-5.5-3.8-6.6c-2.2-0.7-4.9-1.1-8.3-1.1H56.9z M56.9,103.4v18.8h17.2c3.1,0,5.4-0.5,7.2-1.3
		c3.1-1.5,4.7-4.5,4.7-8.8c0-3.6-1.5-6.2-4.5-7.6c-1.6-0.8-4-1.2-7.1-1.2H56.9V103.4z"/>
	<path fill="#FFFFFF" d="M143.6,83.2c3.6,1.6,6.7,4.2,9.1,7.8c2.1,3.1,3.5,6.7,4.1,10.8c0.4,2.4,0.5,5.9,0.5,10.3h-38.1
		c0.2,5.3,2,8.9,5.5,11.1c2.1,1.3,4.6,2,7.5,2c3.1,0,5.6-0.8,7.6-2.4c1.1-0.8,2-2.1,2.8-3.6h14c-0.4,3.1-2.1,6.2-5.1,9.4
		c-4.7,5.1-11.3,7.6-19.6,7.6c-6.9,0-13.1-2.1-18.5-6.5c-5.3-4.2-8-11.3-8-20.9c0-9.1,2.4-16,7.2-20.8c4.8-4.8,11.1-7.3,18.7-7.3
		C135.8,80.8,139.9,81.6,143.6,83.2z M123.1,95c-1.9,2-3.2,4.7-3.6,8.1H143c-0.2-3.6-1.4-6.3-3.6-8.2c-2.2-1.9-4.9-2.8-8.1-2.8
		C127.7,92.1,125,93,123.1,95z"/>
	<rect x="115.9" y="67" fill="#FFFFFF" width="30.3" height="8.8"/>
</g>
</svg>
