<?xml version="1.0" encoding="utf-8"?>
<!-- Generator: Adobe Illustrator 18.0.0, SVG Export Plug-In . SVG Version: 6.00 Build 0)  -->
<!DOCTYPE svg PUBLIC "-//W3C//DTD SVG 1.1//EN" "http://www.w3.org/Graphics/SVG/1.1/DTD/svg11.dtd">
<svg version="1.1" id="Layer_1" xmlns="http://www.w3.org/2000/svg" xmlns:xlink="http://www.w3.org/1999/xlink" x="0px" y="0px"
	 viewBox="0 0 200 200" enable-background="new 0 0 200 200" xml:space="preserve">
<g>
	<path id="Facebook_1_" fill="#FFFFFF" d="M85.6,68.8c0,2.7,0,14.9,0,14.9H74.7v18.2h10.9v50.2h22.5v-50.1h15c0,0,1.4-8.8,2.1-18.3
		c-2,0-17,0-17,0s0-10.6,0-12.5c0-1.9,2.5-4.4,4.8-4.4c2.5,0,7.5,0,12.2,0c0-2.5,0-11.1,0-19c-6.3,0-13.5,0-16.7,0
		C85,47.7,85.6,66.1,85.6,68.8z"/>
</g>
</svg>
