<?xml version="1.0" encoding="utf-8"?>
<!-- Generator: Adobe Illustrator 18.0.0, SVG Export Plug-In . SVG Version: 6.00 Build 0)  -->
<!DOCTYPE svg PUBLIC "-//W3C//DTD SVG 1.1//EN" "http://www.w3.org/Graphics/SVG/1.1/DTD/svg11.dtd">
<svg version="1.1" id="Layer_1" xmlns="http://www.w3.org/2000/svg" xmlns:xlink="http://www.w3.org/1999/xlink" x="0px" y="0px"
	 viewBox="0 0 200 200" enable-background="new 0 0 200 200" xml:space="preserve">
<path fill="#FFFFFF" d="M57.5,43h86.3c8.2,0,14.9,6.7,14.9,14.9v86.3c0,8.2-6.7,14.9-14.9,14.9H57.5c-8.2,0-14.9-6.7-14.9-14.9V58
	C42.7,49.7,49.4,43,57.5,43L57.5,43z M127.2,56c-2.8,0-5.2,2.4-5.2,5.2v12.5c0,2.8,2.4,5.2,5.2,5.2h13.2c2.8,0,5.2-2.4,5.2-5.2V61.3
	c0-2.8-2.4-5.2-5.2-5.2h-13.2V56z M145.6,92.2h-10.2c0.9,3.2,1.5,6.5,1.5,10c0,19.3-16.1,34.9-36.1,34.9
	c-19.9,0-36.1-15.6-36.1-34.9c0-3.4,0.5-6.8,1.5-10H55.5v49c0,2.6,2.1,4.6,4.6,4.6H141c2.6,0,4.6-2.1,4.6-4.6L145.6,92.2L145.6,92.2
	z M100.8,78.3c-12.9,0-23.3,10.1-23.3,22.6s10.5,22.6,23.3,22.6c12.9,0,23.3-10.1,23.3-22.6C124.2,88.4,113.7,78.3,100.8,78.3z"/>
</svg>
