<?xml version="1.0" encoding="utf-8"?>
<!-- Generator: Adobe Illustrator 18.0.0, SVG Export Plug-In . SVG Version: 6.00 Build 0)  -->
<!DOCTYPE svg PUBLIC "-//W3C//DTD SVG 1.1//EN" "http://www.w3.org/Graphics/SVG/1.1/DTD/svg11.dtd">
<svg version="1.1" id="Layer_1" xmlns="http://www.w3.org/2000/svg" xmlns:xlink="http://www.w3.org/1999/xlink" x="0px" y="0px"
	 viewBox="0 0 170.1 170.1" enable-background="new 0 0 170.1 170.1" xml:space="preserve">
<g>
	<g id="twitter_1_" enable-background="new    ">
		<g id="twitter">
			<g>
				<path fill="#FFFFFF" d="M120.2,59.5L120.2,59.5c0.8-0.4,1.4-1,2.1-1.5c2.9-2.2,4.7-5.1,6.1-8.8c-0.8,0.4-1.6,0.9-2.3,1.3
					c-2.4,1.2-6.5,3-9.6,3.2c-3.7-3.4-7.6-6-14.9-5.9c-0.8,0.1-1.5,0.2-2.3,0.3c-1.5,0.3-2.9,0.7-4.2,1.3c-5.3,2.3-9,6.6-10.6,12.6
					c-0.7,2.4-0.9,6.4-0.1,8.8c-3,0-5.9-0.5-8.4-1.1c-9.9-2.4-16.1-5.7-23-11.1c-2-1.6-4-3.4-5.6-5.4c-0.5-0.6-1.3-1.2-1.7-2
					c0,0-0.1,0-0.1,0c-0.8,1.5-1.5,3.1-2,4.9c-1.9,7.2,1.1,13.2,4.2,17.1c1,1.2,2.5,1.9,3.4,3h0.1c-0.7,0.3-1.9-0.1-2.6-0.2
					c-1.5-0.3-2.7-0.6-3.9-1.1c-0.6-0.3-1.3-0.6-1.9-0.9c0,7.9,4,13,8.9,16.1c1.6,1,3.8,2.3,6.1,2.5c-1.2,1-6.6,0.6-8.4,0.4
					c2.3,5.9,5.8,9.9,11.9,12c1.6,0.6,3.5,1,5.6,1c-1.1,1.3-3.5,2.4-5.1,3.3c-3.3,1.9-7,3.1-11.3,4.1c-1.7,0.4-3.5,0.3-5.4,0.6
					c-2,0.3-4.2-0.2-6-0.2c0.6,0.3,1.1,0.7,1.7,1c1.7,1,3.4,1.9,5.3,2.7c3.4,1.5,7,2.6,11.1,3.6c8.1,2,19.5,1.1,26.6-1.1
					c19.7-6.1,32.2-20.5,36.9-41.6c0.8-3.6,0.9-7.8,0.9-12.1c1-0.8,2-1.6,2.9-2.3c2.4-1.9,4.7-4.7,6.4-7.3v0
					C127.7,57.7,124.3,59.5,120.2,59.5z"/>
			</g>
		</g>
	</g>
</g>
</svg>
