<?xml version="1.0" encoding="utf-8"?>
<!-- Generator: Adobe Illustrator 18.0.0, SVG Export Plug-In . SVG Version: 6.00 Build 0)  -->
<!DOCTYPE svg PUBLIC "-//W3C//DTD SVG 1.1//EN" "http://www.w3.org/Graphics/SVG/1.1/DTD/svg11.dtd">
<svg version="1.1" id="Layer_1" xmlns="http://www.w3.org/2000/svg" xmlns:xlink="http://www.w3.org/1999/xlink" x="0px" y="0px"
	 viewBox="0 0 224.4 81.7" enable-background="new 0 0 224.4 81.7" xml:space="preserve">
<g>
	<path fill="#FFFFFF" d="M125.3,24.7h-7.8v18.1c0,4.7-1.9,8.4-7.5,8.4c-5.6,0.1-7.2-3.8-7.2-8.6V24.7h-7.8v19.9
		c0,5.7,2,13.9,12.8,14c5.9,0.1,8.9-2.8,10.2-5.4v4.4h7.4V24.7z"/>
	<path fill="#FFFFFF" d="M128.4,57.6h7.8V39.4c0-4.6,1.9-8.3,7.5-8.4c5.5,0,7.1,3.8,7.1,8.7v17.8h7.8V37.8c0-5.8-2-14-12.7-14.1
		c-5.9-0.1-8.8,2.8-10.2,5.4c0.1-1.6,0.1-2.9,0.1-4.4h-7.4V57.6z"/>
	<path fill="#FFFFFF" d="M161.7,20.3h7.8v-7h-7.8V20.3z M161.7,57.6h7.8V24.7h-7.8V57.6z"/>
	<path fill="#FFFFFF" d="M177.7,57.6h7.8V30.8h5.6l-2.3-6h-3.3V13.3h-7.8v11.4h-5.4v6h5.4V57.6z"/>
	<path fill="#FFFFFF" d="M198.7,69h8.4l17.3-44.3H216l-7.9,21.8l-8-21.8h-8.4l12.4,31.6L198.7,69z"/>
	<path fill="#FFFFFF" d="M79.7,32.5L71,0L38.4,8.7l-4.8,8.5l-9.8-0.1L0,40.9l23.8,23.8h0l9.8-0.1l4.8,8.5L71,81.7l8.7-32.4l-5-8.4
		L79.7,32.5z M59.3,12.2L45,36.8H16.4l18-18.3L59.3,12.2z M45,44.9l14.3,24.7l-24.9-6.4l-18-18.3H45z M52,40.9l14.3-24.7l6.9,24.7
		l-6.9,24.7L52,40.9z"/>
</g>
</svg>
