<?xml version="1.0" encoding="utf-8"?>
<!-- Generator: Adobe Illustrator 18.0.0, SVG Export Plug-In . SVG Version: 6.00 Build 0)  -->
<!DOCTYPE svg PUBLIC "-//W3C//DTD SVG 1.1//EN" "http://www.w3.org/Graphics/SVG/1.1/DTD/svg11.dtd">
<svg version="1.1" id="Layer_1" xmlns="http://www.w3.org/2000/svg" xmlns:xlink="http://www.w3.org/1999/xlink" x="0px" y="0px"
	 viewBox="0 0 123.1 85.4" enable-background="new 0 0 123.1 85.4" xml:space="preserve">
<g>
	<g>
		<polygon fill="#FFFFFF" points="0,0.2 27.1,60.8 38.6,60.8 38.6,26.7 53.7,60.6 65.4,60.6 65.4,27.1 80.5,60.7 92.2,60.6 92.3,0 
			80.3,0 80.3,33.6 65.4,0.1 53.6,0.1 53.6,33.7 38.5,0.1 26.8,0.1 26.8,33.4 11.8,0.1 		"/>
	</g>
	<g>
		<polygon fill="#FFFFFF" points="94.3,0.1 94.3,60.6 123.1,60.6 117.3,48.9 106,48.9 106,0.1 		"/>
	</g>
	<g>
		<g>
			<circle fill="#FFFFFF" cx="27.9" cy="65.4" r="0.5"/>
		</g>
		<g>
			<circle fill="#FFFFFF" cx="30.4" cy="65.4" r="0.5"/>
		</g>
		<g>
			<circle fill="#FFFFFF" cx="33" cy="65.4" r="0.5"/>
		</g>
		<g>
			<circle fill="#FFFFFF" cx="35.5" cy="65.4" r="0.5"/>
		</g>
		<g>
			<circle fill="#FFFFFF" cx="38" cy="65.4" r="0.5"/>
		</g>
		<g>
			<circle fill="#FFFFFF" cx="40.5" cy="65.4" r="0.5"/>
		</g>
		<g>
			<circle fill="#FFFFFF" cx="43" cy="65.4" r="0.5"/>
		</g>
		<g>
			<circle fill="#FFFFFF" cx="45.5" cy="65.4" r="0.5"/>
		</g>
		<g>
			<circle fill="#FFFFFF" cx="48" cy="65.4" r="0.5"/>
		</g>
		<g>
			<circle fill="#FFFFFF" cx="50.5" cy="65.4" r="0.5"/>
		</g>
		<g>
			<circle fill="#FFFFFF" cx="53" cy="65.4" r="0.5"/>
		</g>
		<g>
			<circle fill="#FFFFFF" cx="55.5" cy="65.4" r="0.5"/>
		</g>
		<g>
			<circle fill="#FFFFFF" cx="58" cy="65.4" r="0.5"/>
		</g>
		<g>
			<circle fill="#FFFFFF" cx="60.5" cy="65.4" r="0.5"/>
		</g>
		<g>
			<circle fill="#FFFFFF" cx="63" cy="65.4" r="0.5"/>
		</g>
		<g>
			<circle fill="#FFFFFF" cx="65.5" cy="65.4" r="0.5"/>
		</g>
		<g>
			<circle fill="#FFFFFF" cx="68" cy="65.4" r="0.5"/>
		</g>
		<g>
			<circle fill="#FFFFFF" cx="70.5" cy="65.4" r="0.5"/>
		</g>
		<g>
			<circle fill="#FFFFFF" cx="73" cy="65.4" r="0.5"/>
		</g>
		<g>
			<circle fill="#FFFFFF" cx="75.5" cy="65.4" r="0.5"/>
		</g>
		<g>
			<circle fill="#FFFFFF" cx="78" cy="65.4" r="0.5"/>
		</g>
		<g>
			<circle fill="#FFFFFF" cx="80.5" cy="65.4" r="0.5"/>
		</g>
		<g>
			<circle fill="#FFFFFF" cx="83" cy="65.4" r="0.5"/>
		</g>
		<g>
			<circle fill="#FFFFFF" cx="85.5" cy="65.4" r="0.5"/>
		</g>
		<g>
			<circle fill="#FFFFFF" cx="88" cy="65.4" r="0.5"/>
		</g>
		<g>
			<circle fill="#FFFFFF" cx="90.5" cy="65.4" r="0.5"/>
		</g>
		<g>
			<circle fill="#FFFFFF" cx="93.1" cy="65.4" r="0.5"/>
		</g>
		<g>
			<circle fill="#FFFFFF" cx="95.6" cy="65.4" r="0.5"/>
		</g>
		<g>
			<circle fill="#FFFFFF" cx="98.1" cy="65.4" r="0.5"/>
		</g>
		<g>
			<circle fill="#FFFFFF" cx="100.6" cy="65.4" r="0.5"/>
		</g>
		<g>
			<circle fill="#FFFFFF" cx="103.1" cy="65.4" r="0.5"/>
		</g>
		<g>
			<circle fill="#FFFFFF" cx="105.6" cy="65.4" r="0.5"/>
		</g>
	</g>
	<g>
		<path fill="#FFFFFF" d="M34.4,69.7l1.1,4.5l1-4.5H38L36.5,76h-2l-1-4.1l-1,4.1h-1.9l-1.5-6.3h1.6l1,4.5l1.1-4.5H34.4z"/>
		<path fill="#FFFFFF" d="M42.8,69.7h1.6V76h-1.6v-2.4h-2.5V76h-1.6v-6.3h1.6v2.5h2.5V69.7z"/>
		<path fill="#FFFFFF" d="M47,76h-1.6v-6.3H47V76z"/>
		<path fill="#FFFFFF" d="M51.1,76h-1.6v-4.9h-1.9v-1.4H53v1.4h-1.9V76z"/>
		<path fill="#FFFFFF" d="M57.8,74.6V76h-4.2v-6.3h4.2v1.4h-2.6v1.1h2.4v1.4h-2.4v1.1H57.8z"/>
		<path fill="#FFFFFF" d="M64.7,73.6v-3.8h1.5V76h-1.5l-2.6-3.8V76h-1.5v-6.3h1.6L64.7,73.6z"/>
		<path fill="#FFFFFF" d="M70.2,69.6c1.8,0,3.3,1.3,3.3,3.2c0,1.9-1.5,3.2-3.3,3.2c-1.8,0-3.3-1.3-3.3-3.2
			C67,70.9,68.4,69.6,70.2,69.6z M70.2,71c-1,0-1.7,0.7-1.7,1.8c0,1.1,0.7,1.8,1.7,1.8c1,0,1.7-0.7,1.7-1.8
			C71.9,71.7,71.2,71,70.2,71z"/>
		<path fill="#FFFFFF" d="M75.9,76h-1.6v-6.3h1.6V76z"/>
		<path fill="#FFFFFF" d="M76.7,74.1c0.5,0.3,1,0.6,1.7,0.6c0.5,0,0.9-0.1,0.9-0.6c0-0.4-0.3-0.5-1-0.7c-1.3-0.3-1.8-0.9-1.8-2
			c0-1.2,0.9-1.9,2.2-1.9c0.8,0,1.3,0.2,1.7,0.5v1.5c-0.5-0.4-1-0.7-1.7-0.7c-0.5,0-0.7,0.2-0.7,0.5c0,0.4,0.4,0.5,1,0.7
			c1.3,0.3,1.7,0.9,1.7,2c0,1.4-1.1,2-2.4,2c-0.7,0-1.3-0.2-1.7-0.4V74.1z"/>
		<path fill="#FFFFFF" d="M85.9,74.6V76h-4.2v-6.3h4.2v1.4h-2.6v1.1h2.4v1.4h-2.4v1.1H85.9z"/>
		<path fill="#FFFFFF" d="M88.6,69.7h1.6v4.9h2.4V76h-4V69.7z"/>
		<path fill="#FFFFFF" d="M94.9,74.8L94.5,76h-1.7l2.4-6.3h1.9l2.4,6.3h-1.7l-0.4-1.2H94.9z M96.2,71.3l-0.8,2.2H97L96.2,71.3z"/>
		<path fill="#FFFFFF" d="M100,69.8c0.5-0.1,1.3-0.2,1.9-0.2c1.4,0,2.5,0.4,2.5,1.8c0,0.7-0.5,1.2-1.1,1.3c0.8,0.1,1.4,0.6,1.4,1.5
			c0,1.2-0.9,1.8-3,1.8c-0.6,0-1.3-0.1-1.7-0.1V69.8z M101.6,72.2h0.5c0.7,0,0.9-0.2,0.9-0.7c0-0.4-0.3-0.6-0.8-0.6
			c-0.2,0-0.5,0-0.6,0V72.2z M101.6,74.8c0.1,0,0.4,0,0.5,0c0.6,0,1.1-0.2,1.1-0.7c0-0.5-0.4-0.6-0.9-0.6h-0.7V74.8z"/>
	</g>
	<g>
		<path fill="#FFFFFF" d="M51.7,82.3c0.3,0.2,0.5,0.3,0.8,0.3c0.4,0,0.7-0.2,0.7-0.6c0-0.4-0.3-0.5-0.7-0.7c-0.6-0.2-0.9-0.4-0.9-1
			c0-0.6,0.5-0.8,1-0.8c0.3,0,0.6,0.1,0.8,0.3v0.4c-0.3-0.2-0.5-0.3-0.8-0.3c-0.4,0-0.6,0.2-0.6,0.6c0,0.3,0.2,0.5,0.7,0.6
			c0.6,0.2,0.9,0.4,0.9,1c0,0.6-0.5,0.9-1.1,0.9c-0.4,0-0.6-0.1-0.8-0.3V82.3z"/>
		<path fill="#FFFFFF" d="M55.7,79.6c0.9,0,1.7,0.7,1.7,1.7S56.6,83,55.7,83S54,82.3,54,81.3S54.7,79.6,55.7,79.6z M55.7,79.9
			c-0.7,0-1.4,0.5-1.4,1.4c0,0.8,0.6,1.4,1.4,1.4c0.7,0,1.4-0.5,1.4-1.4C57.1,80.4,56.4,79.9,55.7,79.9z"/>
		<path fill="#FFFFFF" d="M57.9,79.6h0.3v2.2c0,0.7,0.4,0.9,1,0.9c0.3,0,0.5,0,0.8-0.1v-3h0.3v3.2c-0.3,0.1-0.7,0.1-1.1,0.1
			c-0.7,0-1.4-0.2-1.4-1.1V79.6z"/>
		<path fill="#FFFFFF" d="M63.6,82.4v-2.8h0.3v3.3h-0.3l-2-2.8v2.8h-0.3v-3.3h0.4L63.6,82.4z"/>
		<path fill="#FFFFFF" d="M64.7,79.6c0.2,0,0.5,0,0.7,0c1.5,0,2,0.8,2,1.6c0,0.9-0.5,1.8-2,1.8c-0.3,0-0.5,0-0.7-0.1V79.6z
			 M65.1,82.6c0.1,0,0.3,0,0.4,0c0.9,0,1.6-0.5,1.6-1.5c0-0.8-0.5-1.3-1.7-1.3c-0.1,0-0.2,0-0.3,0V82.6z"/>
		<path fill="#FFFFFF" d="M69,79.6c0.2,0,0.5,0,0.7,0c1.5,0,2,0.8,2,1.6c0,0.9-0.5,1.8-2,1.8c-0.3,0-0.5,0-0.7-0.1V79.6z M69.4,82.6
			c0.1,0,0.3,0,0.4,0c0.9,0,1.6-0.5,1.6-1.5c0-0.8-0.5-1.3-1.7-1.3c-0.1,0-0.2,0-0.3,0V82.6z"/>
		<path fill="#FFFFFF" d="M74.2,82.6v0.3h-1.9v-3.3h1.9v0.3h-1.5v1.2h1.4v0.3h-1.4v1.2H74.2z"/>
		<path fill="#FFFFFF" d="M74.7,82.3c0.3,0.2,0.5,0.3,0.8,0.3c0.4,0,0.7-0.2,0.7-0.6c0-0.4-0.3-0.5-0.7-0.7c-0.6-0.2-0.9-0.4-0.9-1
			c0-0.6,0.5-0.8,1-0.8c0.3,0,0.6,0.1,0.8,0.3v0.4c-0.3-0.2-0.5-0.3-0.8-0.3c-0.4,0-0.6,0.2-0.6,0.6c0,0.3,0.2,0.5,0.7,0.6
			c0.6,0.2,0.9,0.4,0.9,1c0,0.6-0.5,0.9-1.1,0.9c-0.4,0-0.6-0.1-0.8-0.3V82.3z"/>
		<path fill="#FFFFFF" d="M77.6,82.9h-0.3v-3.3h0.3V82.9z"/>
		<path fill="#FFFFFF" d="M80.8,80.2c-0.2-0.2-0.6-0.3-0.9-0.3c-0.7,0-1.3,0.6-1.3,1.4c0,0.8,0.6,1.4,1.3,1.4c0.3,0,0.5,0,0.7-0.1
			v-1.1h0.3v1.3c-0.3,0.2-0.6,0.2-1,0.2c-1,0-1.7-0.7-1.7-1.7c0-1,0.8-1.7,1.7-1.7c0.3,0,0.6,0.1,0.9,0.2V80.2z"/>
		<path fill="#FFFFFF" d="M83.9,82.4v-2.8h0.3v3.3h-0.3l-2-2.8v2.8h-0.3v-3.3H82L83.9,82.4z"/>
	</g>
	<g>
		<g>
			<path fill="#FFFFFF" d="M50.3,81.1c0,0.4-0.2,0.6-0.5,0.6c-0.3,0-0.5-0.3-0.7-0.3c-0.1,0-0.2,0.1-0.2,0.3h-0.4
				c0-0.4,0.2-0.6,0.5-0.6c0.3,0,0.5,0.3,0.7,0.3c0.1,0,0.2-0.1,0.2-0.3H50.3z"/>
		</g>
	</g>
	<g>
		<g>
			<path fill="#FFFFFF" d="M87.8,81.1c0,0.4-0.2,0.6-0.5,0.6c-0.3,0-0.5-0.3-0.7-0.3c-0.1,0-0.2,0.1-0.2,0.3H86
				c0-0.4,0.2-0.6,0.5-0.6c0.3,0,0.5,0.3,0.7,0.3c0.1,0,0.2-0.1,0.2-0.3H87.8z"/>
		</g>
	</g>
</g>
</svg>
