<?xml version="1.0" encoding="utf-8"?>
<!-- Generator: Adobe Illustrator 18.1.1, SVG Export Plug-In . SVG Version: 6.00 Build 0)  -->
<!DOCTYPE svg PUBLIC "-//W3C//DTD SVG 1.1//EN" "http://www.w3.org/Graphics/SVG/1.1/DTD/svg11.dtd">
<svg version="1.1" id="Layer_1" xmlns="http://www.w3.org/2000/svg" xmlns:xlink="http://www.w3.org/1999/xlink" x="0px" y="0px"
	 width="63px" height="43px" viewBox="-175 19 63 43" enable-background="new -175 19 63 43" xml:space="preserve">
<path id="sound.svg" fill="#FFFFFF" d="M-174,41.9c-0.6,0-1-0.5-1-1v-0.7c0-0.6,0.5-1,1-1c0.6,0,1,0.5,1,1v0.7
	C-173,41.4-173.4,41.8-174,41.9z M-169.9,41.5c-0.3,0-0.5-0.1-0.8-0.3c-0.2-0.2-0.3-0.5-0.3-0.8c0-0.3,0.1-0.5,0.3-0.8
	c0.4-0.4,1-0.4,1.4,0c0,0,0,0,0,0c0.2,0.2,0.3,0.5,0.3,0.8c0,0.3-0.1,0.5-0.3,0.8C-169.4,41.4-169.7,41.5-169.9,41.5z M-165.8,51.8
	c-0.6,0-1-0.5-1-1V30.3c0-0.6,0.5-1,1-1c0.6,0,1,0.5,1,1v20.5C-164.8,51.3-165.3,51.7-165.8,51.8L-165.8,51.8z M-157.7,58.6
	c-0.6,0-1-0.5-1-1V23.4c0-0.6,0.5-1,1-1c0.6,0,1,0.5,1,1v34.1C-156.7,58.1-157.2,58.6-157.7,58.6z M-161.8,62c-0.6,0-1-0.5-1-1V20
	c0-0.6,0.5-1,1-1c0.6,0,1,0.5,1,1v41C-160.8,61.5-161.2,62-161.8,62z M-153.6,53.1c-0.6,0-1-0.5-1-1V28.9c0-0.6,0.5-1,1-1s1,0.5,1,1
	v23.2C-152.6,52.7-153.1,53.1-153.6,53.1L-153.6,53.1z M-149.6,48c-0.6,0-1-0.5-1-1V34c0-0.6,0.5-1,1-1s1,0.5,1,1v13
	C-148.6,47.5-149,48-149.6,48z M-145.5,44.6c-0.6,0-1-0.5-1-1v-6.1c0-0.6,0.5-1,1-1s1,0.5,1,1v6.1
	C-144.5,44.1-144.9,44.6-145.5,44.6L-145.5,44.6z M-141.4,46.3c-0.6,0-1-0.5-1-1v-9.6c0-0.6,0.5-1,1-1c0.6,0,1,0.5,1,1v9.6
	C-140.4,45.8-140.9,46.3-141.4,46.3L-141.4,46.3z M-137.4,43.6c-0.6,0-1-0.5-1-1v-4.1c0-0.6,0.5-1,1-1c0.6,0,1,0.5,1,1v4.1
	C-136.4,43.1-136.8,43.6-137.4,43.6L-137.4,43.6z M-133.3,42.5c-0.6,0-1-0.5-1-1v-2c0-0.6,0.5-1,1-1c0.6,0,1,0.5,1,1v2
	C-132.3,42.1-132.7,42.5-133.3,42.5L-133.3,42.5z M-129.2,41.5c-0.3,0-0.5-0.1-0.7-0.3c-0.1-0.1-0.2-0.2-0.2-0.3
	c0-0.1-0.1-0.3-0.1-0.4v-0.2c0-0.1,0-0.1,0.1-0.2c0-0.1,0.1-0.1,0.1-0.2c0-0.1,0.1-0.1,0.1-0.1c0,0,0.1-0.1,0.1-0.1
	c0.1-0.1,0.1-0.1,0.2-0.1c0.1,0,0.1-0.1,0.2-0.1h0.4c0.1,0,0.1,0,0.2,0.1c0.1,0,0.1,0.1,0.2,0.1c0.1,0,0.1,0.1,0.1,0.1l0.1,0.1
	c0,0.1,0.1,0.1,0.1,0.2s0.1,0.1,0.1,0.2v0.2c0,0.1,0,0.3-0.1,0.4c0,0.1-0.1,0.2-0.2,0.3c-0.1,0.1-0.2,0.1-0.3,0.2
	C-128.9,41.5-129.1,41.5-129.2,41.5L-129.2,41.5z M-125.2,41.9c-0.6,0-1-0.5-1-1v-0.7c0-0.6,0.5-1,1-1c0.6,0,1,0.5,1,1v0.7
	C-124.2,41.4-124.6,41.9-125.2,41.9L-125.2,41.9z M-117,41.9c-0.6,0-1-0.5-1-1v-0.7c0-0.6,0.5-1,1-1s1,0.5,1,1v0.7
	C-116,41.4-116.5,41.8-117,41.9L-117,41.9z M-121.1,41.5c-0.3,0-0.5-0.1-0.7-0.3c-0.2-0.2-0.3-0.5-0.3-0.8v-0.2c0-0.1,0-0.1,0.1-0.2
	c0-0.1,0.1-0.1,0.1-0.2c0-0.1,0.1-0.1,0.1-0.1c0.2-0.2,0.6-0.4,0.9-0.3c0.1,0,0.2,0,0.2,0.1c0.1,0,0.1,0.1,0.2,0.1
	c0.1,0,0.1,0.1,0.1,0.1c0.2,0.2,0.3,0.5,0.3,0.8c0,0.3-0.1,0.5-0.3,0.8c-0.1,0.1-0.2,0.1-0.3,0.2C-120.8,41.5-121,41.5-121.1,41.5
	L-121.1,41.5z M-112.9,41.5c-0.3,0-0.5-0.1-0.8-0.3c-0.1-0.1-0.1-0.2-0.2-0.3c-0.1-0.1-0.1-0.3-0.1-0.4c0-0.3,0.1-0.5,0.3-0.8
	c0.4-0.4,1-0.4,1.4,0c0,0,0,0,0,0c0.2,0.2,0.3,0.5,0.3,0.8c0,0.1,0,0.3-0.1,0.4c-0.1,0.1-0.1,0.2-0.2,0.3
	C-112.5,41.4-112.7,41.5-112.9,41.5z"/>
</svg>
